<svg width="1207.832421875px" height="298.41750488281247px" xmlns="http://www.w3.org/2000/svg" viewBox="-353.91621093749995 -74.20875244140623 1207.832421875 298.41750488281247" style="background: none;" preserveAspectRatio="xMidYMid"><defs><filter id="editing-extrude-glow"><feFlood flood-color="#333333" result="flood-1"></feFlood><feMorphology operator="erode" radius="1" in="SourceAlpha" result="erode"></feMorphology><feComposite operator="in" in="flood-1" in2="erode" result="comp1"></feComposite><feConvolveMatrix order="6,6" divisor="1" in="comp1" result="convolve" kernelMatrix="0 0 0 0 0 0 0 0 0 0 0 0 0 0 0 0 0 0 1 1 1 1 1 1 0 0 0 0 0 0 0 0 0 0 0 0"></feConvolveMatrix><feOffset dx="-6" dy="0" in="convolve" result="extrude"></feOffset><feComposite operator="in" in="flood-1" in2="extrude" result="comp-extrude"></feComposite><feFlood flood-color="#000000" result="flood-2"></feFlood><feComposite operator="in" in="flood-2" in2="SourceAlpha" result="comp2"></feComposite><feMorphology operator="dilate" radius="1" in="comp2" result="dilate"></feMorphology><feOffset dx="-9" dy="0" in="dilate" result="offset"></feOffset><feGaussianBlur in="offset" stdDeviation="5.8" result="blur"></feGaussianBlur><feComponentTransfer in="blur" result="shadow"><feFuncA type="linear" slope="0.8" intercept="-0.2"></feFuncA></feComponentTransfer><feMerge><feMergeNode in="shadow"></feMergeNode><feMergeNode in="comp-extrude"></feMergeNode><feMergeNode in="SourceGraphic"></feMergeNode></feMerge></filter></defs><g filter="url(#editing-extrude-glow)"><g transform="translate(-187.27501344680786, 115.89500045776367)"><path d="M5.98-8.28L5.98-47.20L5.98-47.20Q5.98-51.15 8.28-53.45L8.28-53.45L8.28-53.45Q10.58-55.75 14.54-55.75L14.54-55.75L44.90-55.75L44.90-55.75Q45.54-54.74 46.05-53.08L46.05-53.08L46.05-53.08Q46.55-51.43 46.55-49.59L46.55-49.59L46.55-49.59Q46.55-46.09 45.03-44.62L45.03-44.62L45.03-44.62Q43.52-43.15 41.03-43.15L41.03-43.15L21.62-43.15L21.62-34.59L42.32-34.59L42.32-34.59Q42.96-33.58 43.47-31.97L43.47-31.97L43.47-31.97Q43.98-30.36 43.98-28.52L43.98-28.52L43.98-28.52Q43.98-25.02 42.50-23.55L42.50-23.55L42.50-23.55Q41.03-22.08 38.55-22.08L38.55-22.08L21.62-22.08L21.62-12.42L45.26-12.42L45.26-12.42Q45.91-11.41 46.41-9.75L46.41-9.75L46.41-9.75Q46.92-8.10 46.92-6.26L46.92-6.26L46.92-6.26Q46.92-2.76 45.40-1.24L45.40-1.24L45.40-1.24Q43.88 0.28 41.40 0.28L41.40 0.28L14.54 0.28L14.54 0.28Q10.58 0.28 8.28-2.02L8.28-2.02L8.28-2.02Q5.98-4.32 5.98-8.28L5.98-8.28ZM83.08-6.62L83.08-28.34L83.08-28.34Q83.08-31.19 81.47-32.52L81.47-32.52L81.47-32.52Q79.86-33.86 77.10-33.86L77.10-33.86L77.10-33.86Q75.26-33.86 73.46-33.40L73.46-33.40L73.46-33.40Q71.67-32.94 70.38-32.02L70.38-32.02L70.38-0.09L70.38-0.09Q69.46 0.18 67.48 0.46L67.48 0.46L67.48 0.46Q65.50 0.74 63.39 0.74L63.39 0.74L63.39 0.74Q61.36 0.74 59.75 0.46L59.75 0.46L59.75 0.46Q58.14 0.18 57.04-0.64L57.04-0.64L57.04-0.64Q55.94-1.47 55.34-2.90L55.34-2.90L55.34-2.90Q54.74-4.32 54.74-6.62L54.74-6.62L54.74-34.22L54.74-34.22Q54.74-36.71 55.80-38.27L55.80-38.27L55.80-38.27Q56.86-39.84 58.70-41.12L58.70-41.12L58.70-41.12Q61.82-43.33 66.56-44.71L66.56-44.71L66.56-44.71Q71.30-46.09 77.10-46.09L77.10-46.09L77.10-46.09Q87.49-46.09 93.10-41.54L93.10-41.54L93.10-41.54Q98.72-36.98 98.72-28.89L98.72-28.89L98.72-0.09L98.72-0.09Q97.80 0.18 95.82 0.46L95.82 0.46L95.82 0.46Q93.84 0.74 91.72 0.74L91.72 0.74L91.72 0.74Q89.70 0.74 88.09 0.46L88.09 0.46L88.09 0.46Q86.48 0.18 85.38-0.64L85.38-0.64L85.38-0.64Q84.27-1.47 83.67-2.90L83.67-2.90L83.67-2.90Q83.08-4.32 83.08-6.62L83.08-6.62ZM133.58-33.76L133.58-33.76L133.58-33.76Q131.28-33.76 129.21-33.03L129.21-33.03L129.21-33.03Q127.14-32.29 125.63-30.87L125.63-30.87L125.63-30.87Q124.11-29.44 123.19-27.32L123.19-27.32L123.19-27.32Q122.27-25.21 122.27-22.36L122.27-22.36L122.27-22.36Q122.27-16.65 125.53-13.80L125.53-13.80L125.53-13.80Q128.80-10.95 133.49-10.95L133.49-10.95L133.49-10.95Q136.25-10.95 138.28-11.59L138.28-11.59L138.28-11.59Q140.30-12.24 141.86-12.97L141.86-12.97L141.86-12.97Q143.70-11.68 144.62-10.17L144.62-10.17L144.62-10.17Q145.54-8.65 145.54-6.53L145.54-6.53L145.54-6.53Q145.54-2.76 141.96-0.69L141.96-0.69L141.96-0.69Q138.37 1.38 132.02 1.38L132.02 1.38L132.02 1.38Q126.22 1.38 121.53-0.32L121.53-0.32L121.53-0.32Q116.84-2.02 113.48-5.11L113.48-5.11L113.48-5.11Q110.12-8.19 108.28-12.51L108.28-12.51L108.28-12.51Q106.44-16.84 106.44-22.08L106.44-22.08L106.44-22.08Q106.44-28.15 108.42-32.71L108.42-32.71L108.42-32.71Q110.40-37.26 113.80-40.20L113.80-40.20L113.80-40.20Q117.21-43.15 121.67-44.62L121.67-44.62L121.67-44.62Q126.13-46.09 131.10-46.09L131.10-46.09L131.10-46.09Q137.72-46.09 141.31-43.70L141.31-43.70L141.31-43.70Q144.90-41.31 144.90-37.54L144.90-37.54L144.90-37.54Q144.90-35.79 144.07-34.27L144.07-34.27L144.07-34.27Q143.24-32.75 142.14-31.65L142.14-31.65L142.14-31.65Q140.58-32.38 138.37-33.07L138.37-33.07L138.37-33.07Q136.16-33.76 133.58-33.76ZM153.36-17.76L153.36-44.07L153.36-44.07Q154.28-44.34 156.26-44.62L156.26-44.62L156.26-44.62Q158.24-44.90 160.36-44.90L160.36-44.90L160.36-44.90Q162.38-44.90 163.99-44.62L163.99-44.62L163.99-44.62Q165.60-44.34 166.70-43.52L166.70-43.52L166.70-43.52Q167.81-42.69 168.41-41.26L168.41-41.26L168.41-41.26Q169.00-39.84 169.00-37.54L169.00-37.54L169.00-17.76L169.00-17.76Q169.00-13.98 170.84-12.37L170.84-12.37L170.84-12.37Q172.68-10.76 176.18-10.76L176.18-10.76L176.18-10.76Q178.30-10.76 179.63-11.13L179.63-11.13L179.63-11.13Q180.96-11.50 181.70-11.87L181.70-11.87L181.70-44.07L181.70-44.07Q182.62-44.34 184.60-44.62L184.60-44.62L184.60-44.62Q186.58-44.90 188.69-44.90L188.69-44.90L188.69-44.90Q190.72-44.90 192.33-44.62L192.33-44.62L192.33-44.62Q193.94-44.34 195.04-43.52L195.04-43.52L195.04-43.52Q196.14-42.69 196.74-41.26L196.74-41.26L196.74-41.26Q197.34-39.84 197.34-37.54L197.34-37.54L197.34-9.57L197.34-9.57Q197.34-4.97 193.48-2.67L193.48-2.67L193.48-2.67Q190.26-0.64 185.79 0.41L185.79 0.41L185.79 0.41Q181.33 1.47 176.09 1.47L176.09 1.47L176.09 1.47Q171.12 1.47 166.93 0.37L166.93 0.37L166.93 0.37Q162.75-0.74 159.71-3.04L159.71-3.04L159.71-3.04Q156.68-5.34 155.02-8.97L155.02-8.97L155.02-8.97Q153.36-12.60 153.36-17.76L153.36-17.76ZM230.55 1.47L230.55 1.47L230.55 1.47Q225.12 1.47 220.48-0.05L220.48-0.05L220.48-0.05Q215.83-1.56 212.38-4.60L212.38-4.60L212.38-4.60Q208.93-7.64 206.95-12.24L206.95-12.24L206.95-12.24Q204.98-16.84 204.98-23L204.98-23L204.98-23Q204.98-29.07 206.95-33.44L206.95-33.44L206.95-33.44Q208.93-37.81 212.15-40.62L212.15-40.62L212.15-40.62Q215.37-43.42 219.51-44.76L219.51-44.76L219.51-44.76Q223.65-46.09 227.98-46.09L227.98-46.09L227.98-46.09Q232.85-46.09 236.85-44.62L236.85-44.62L236.85-44.62Q240.86-43.15 243.75-40.57L243.75-40.57L243.75-40.57Q246.65-38.00 248.26-34.41L248.26-34.41L248.26-34.41Q249.87-30.82 249.87-26.59L249.87-26.59L249.87-26.59Q249.87-23.46 248.12-21.80L248.12-21.80L248.12-21.80Q246.38-20.15 243.25-19.69L243.25-19.69L220.52-16.28L220.52-16.28Q221.54-13.25 224.66-11.73L224.66-11.73L224.66-11.73Q227.79-10.21 231.84-10.21L231.84-10.21L231.84-10.21Q235.61-10.21 238.97-11.18L238.97-11.18L238.97-11.18Q242.33-12.14 244.44-13.43L244.44-13.43L244.44-13.43Q245.92-12.51 246.93-10.86L246.93-10.86L246.93-10.86Q247.94-9.20 247.94-7.36L247.94-7.36L247.94-7.36Q247.94-3.22 244.08-1.20L244.08-1.20L244.08-1.20Q241.13 0.37 237.45 0.92L237.45 0.92L237.45 0.92Q233.77 1.47 230.55 1.47ZM227.98-34.68L227.98-34.68L227.98-34.68Q225.77-34.68 224.16-33.95L224.16-33.95L224.16-33.95Q222.55-33.21 221.54-32.06L221.54-32.06L221.54-32.06Q220.52-30.91 220.02-29.49L220.02-29.49L220.02-29.49Q219.51-28.06 219.42-26.59L219.42-26.59L235.15-29.16L235.15-29.16Q234.88-31.00 233.13-32.84L233.13-32.84L233.13-32.84Q231.38-34.68 227.98-34.68ZM285.75-6.62L285.75-28.34L285.75-28.34Q285.75-31.19 284.14-32.52L284.14-32.52L284.14-32.52Q282.53-33.86 279.77-33.86L279.77-33.86L279.77-33.86Q277.93-33.86 276.14-33.40L276.14-33.40L276.14-33.40Q274.34-32.94 273.06-32.02L273.06-32.02L273.06-0.09L273.06-0.09Q272.14 0.18 270.16 0.46L270.16 0.46L270.16 0.46Q268.18 0.74 266.06 0.74L266.06 0.74L266.06 0.74Q264.04 0.74 262.43 0.46L262.43 0.46L262.43 0.46Q260.82 0.18 259.72-0.64L259.72-0.64L259.72-0.64Q258.61-1.47 258.01-2.90L258.01-2.90L258.01-2.90Q257.42-4.32 257.42-6.62L257.42-6.62L257.42-34.22L257.42-34.22Q257.42-36.71 258.47-38.27L258.47-38.27L258.47-38.27Q259.53-39.84 261.37-41.12L261.37-41.12L261.37-41.12Q264.50-43.33 269.24-44.71L269.24-44.71L269.24-44.71Q273.98-46.09 279.77-46.09L279.77-46.09L279.77-46.09Q290.17-46.09 295.78-41.54L295.78-41.54L295.78-41.54Q301.39-36.98 301.39-28.89L301.39-28.89L301.39-0.09L301.39-0.09Q300.47 0.18 298.49 0.46L298.49 0.46L298.49 0.46Q296.52 0.74 294.40 0.74L294.40 0.74L294.40 0.74Q292.38 0.74 290.77 0.46L290.77 0.46L290.77 0.46Q289.16 0.18 288.05-0.64L288.05-0.64L288.05-0.64Q286.95-1.47 286.35-2.90L286.35-2.90L286.35-2.90Q285.75-4.32 285.75-6.62L285.75-6.62ZM326.69-29.26L326.69-15.36L326.69-15.36Q326.69-12.97 328.21-11.96L328.21-11.96L328.21-11.96Q329.73-10.95 332.49-10.95L332.49-10.95L332.49-10.95Q333.87-10.95 335.34-11.18L335.34-11.18L335.34-11.18Q336.81-11.41 337.92-11.78L337.92-11.78L337.92-11.78Q338.74-10.76 339.34-9.52L339.34-9.52L339.34-9.52Q339.94-8.28 339.94-6.53L339.94-6.53L339.94-6.53Q339.94-3.04 337.32-0.83L337.32-0.83L337.32-0.83Q334.70 1.38 328.07 1.38L328.07 1.38L328.07 1.38Q319.98 1.38 315.61-2.30L315.61-2.30L315.61-2.30Q311.24-5.98 311.24-14.26L311.24-14.26L311.24-53.64L311.24-53.64Q312.25-53.91 314.13-54.23L314.13-54.23L314.13-54.23Q316.02-54.56 318.14-54.56L318.14-54.56L318.14-54.56Q322.18-54.56 324.44-53.13L324.44-53.13L324.44-53.13Q326.69-51.70 326.69-47.10L326.69-47.10L326.69-41.22L338.74-41.22L338.74-41.22Q339.30-40.20 339.80-38.69L339.80-38.69L339.80-38.69Q340.31-37.17 340.31-35.33L340.31-35.33L340.31-35.33Q340.31-32.11 338.88-30.68L338.88-30.68L338.88-30.68Q337.46-29.26 335.06-29.26L335.06-29.26L326.69-29.26ZM363.49-31.46L363.49-0.09L363.49-0.09Q362.57 0.18 360.59 0.46L360.59 0.46L360.59 0.46Q358.62 0.74 356.50 0.74L356.50 0.74L356.50 0.74Q354.48 0.74 352.87 0.46L352.87 0.46L352.87 0.46Q351.26 0.18 350.15-0.64L350.15-0.64L350.15-0.64Q349.05-1.47 348.45-2.90L348.45-2.90L348.45-2.90Q347.85-4.32 347.85-6.62L347.85-6.62L347.85-34.22L347.85-34.22Q347.85-36.34 348.63-37.86L348.63-37.86L348.63-37.86Q349.42-39.38 350.89-40.57L350.89-40.57L350.89-40.57Q352.36-41.77 354.52-42.73L354.52-42.73L354.52-42.73Q356.68-43.70 359.17-44.44L359.17-44.44L359.17-44.44Q361.65-45.17 364.32-45.59L364.32-45.59L364.32-45.59Q366.99-46 369.66-46L369.66-46L369.66-46Q374.07-46 376.65-44.30L376.65-44.30L376.65-44.30Q379.22-42.60 379.22-38.73L379.22-38.73L379.22-38.73Q379.22-37.44 378.86-36.20L378.86-36.20L378.86-36.20Q378.49-34.96 377.94-33.95L377.94-33.95L377.94-33.95Q376.00-33.95 373.98-33.76L373.98-33.76L373.98-33.76Q371.96-33.58 370.02-33.21L370.02-33.21L370.02-33.21Q368.09-32.84 366.39-32.43L366.39-32.43L366.39-32.43Q364.69-32.02 363.49-31.46L363.49-31.46ZM403.42-9.94L403.42-9.94L403.42-9.94Q404.98-9.94 406.87-10.26L406.87-10.26L406.87-10.26Q408.76-10.58 409.68-11.13L409.68-11.13L409.68-18.49L403.05-17.94L403.05-17.94Q400.48-17.76 398.82-16.84L398.82-16.84L398.82-16.84Q397.16-15.92 397.16-14.08L397.16-14.08L397.16-14.08Q397.16-12.24 398.59-11.09L398.59-11.09L398.59-11.09Q400.02-9.94 403.42-9.94ZM402.68-46.09L402.68-46.09L402.68-46.09Q407.65-46.09 411.75-45.08L411.75-45.08L411.75-45.08Q415.84-44.07 418.74-42.00L418.74-42.00L418.74-42.00Q421.64-39.93 423.20-36.75L423.20-36.75L423.20-36.75Q424.76-33.58 424.76-29.26L424.76-29.26L424.76-8.65L424.76-8.65Q424.76-6.26 423.43-4.74L423.43-4.74L423.43-4.74Q422.10-3.22 420.26-2.12L420.26-2.12L420.26-2.12Q414.28 1.47 403.42 1.47L403.42 1.47L403.42 1.47Q398.54 1.47 394.63 0.55L394.63 0.55L394.63 0.55Q390.72-0.37 387.92-2.21L387.92-2.21L387.92-2.21Q385.11-4.05 383.59-6.90L383.59-6.90L383.59-6.90Q382.08-9.75 382.08-13.52L382.08-13.52L382.08-13.52Q382.08-19.87 385.85-23.28L385.85-23.28L385.85-23.28Q389.62-26.68 397.53-27.51L397.53-27.51L409.58-28.80L409.58-29.44L409.58-29.44Q409.58-32.11 407.24-33.26L407.24-33.26L407.24-33.26Q404.89-34.41 400.48-34.41L400.48-34.41L400.48-34.41Q396.98-34.41 393.67-33.67L393.67-33.67L393.67-33.67Q390.36-32.94 387.69-31.83L387.69-31.83L387.69-31.83Q386.49-32.66 385.66-34.36L385.66-34.36L385.66-34.36Q384.84-36.06 384.84-37.90L384.84-37.90L384.84-37.90Q384.84-40.30 385.99-41.72L385.99-41.72L385.99-41.72Q387.14-43.15 389.53-44.16L389.53-44.16L389.53-44.16Q392.20-45.17 395.83-45.63L395.83-45.63L395.83-45.63Q399.46-46.09 402.68-46.09ZM462.67-6.62L462.67-28.34L462.67-28.34Q462.67-31.19 461.06-32.52L461.06-32.52L461.06-32.52Q459.45-33.86 456.69-33.86L456.69-33.86L456.69-33.86Q454.85-33.86 453.05-33.40L453.05-33.40L453.05-33.40Q451.26-32.94 449.97-32.02L449.97-32.02L449.97-0.09L449.97-0.09Q449.05 0.18 447.07 0.46L447.07 0.46L447.07 0.46Q445.10 0.74 442.98 0.74L442.98 0.74L442.98 0.74Q440.96 0.74 439.35 0.46L439.35 0.46L439.35 0.46Q437.74 0.18 436.63-0.64L436.63-0.64L436.63-0.64Q435.53-1.47 434.93-2.90L434.93-2.90L434.93-2.90Q434.33-4.32 434.33-6.62L434.33-6.62L434.33-34.22L434.33-34.22Q434.33-36.71 435.39-38.27L435.39-38.27L435.39-38.27Q436.45-39.84 438.29-41.12L438.29-41.12L438.29-41.12Q441.42-43.33 446.15-44.71L446.15-44.71L446.15-44.71Q450.89-46.09 456.69-46.09L456.69-46.09L456.69-46.09Q467.08-46.09 472.70-41.54L472.70-41.54L472.70-41.54Q478.31-36.98 478.31-28.89L478.31-28.89L478.31-0.09L478.31-0.09Q477.39 0.18 475.41 0.46L475.41 0.46L475.41 0.46Q473.43 0.74 471.32 0.74L471.32 0.74L471.32 0.74Q469.29 0.74 467.68 0.46L467.68 0.46L467.68 0.46Q466.07 0.18 464.97-0.64L464.97-0.64L464.97-0.64Q463.86-1.47 463.27-2.90L463.27-2.90L463.27-2.90Q462.67-4.32 462.67-6.62L462.67-6.62ZM534.24-22.36L534.24-22.36L534.24-22.36Q534.24-16.65 532.50-12.19L532.50-12.19L532.50-12.19Q530.75-7.73 527.57-4.69L527.57-4.69L527.57-4.69Q524.40-1.66 519.98-0.09L519.98-0.09L519.98-0.09Q515.57 1.47 510.14 1.47L510.14 1.47L510.14 1.47Q504.71 1.47 500.30-0.18L500.30-0.18L500.30-0.18Q495.88-1.84 492.71-4.92L492.71-4.92L492.71-4.92Q489.53-8.00 487.78-12.42L487.78-12.42L487.78-12.42Q486.04-16.84 486.04-22.36L486.04-22.36L486.04-22.36Q486.04-27.78 487.78-32.20L487.78-32.20L487.78-32.20Q489.53-36.62 492.71-39.70L492.71-39.70L492.71-39.70Q495.88-42.78 500.30-44.44L500.30-44.44L500.30-44.44Q504.71-46.09 510.14-46.09L510.14-46.09L510.14-46.09Q515.57-46.09 519.98-44.39L519.98-44.39L519.98-44.39Q524.40-42.69 527.57-39.61L527.57-39.61L527.57-39.61Q530.75-36.52 532.50-32.11L532.50-32.11L532.50-32.11Q534.24-27.69 534.24-22.36ZM502.04-22.36L502.04-22.36L502.04-22.36Q502.04-16.74 504.21-13.75L504.21-13.75L504.21-13.75Q506.37-10.76 510.23-10.76L510.23-10.76L510.23-10.76Q514.10-10.76 516.17-13.80L516.17-13.80L516.17-13.80Q518.24-16.84 518.24-22.36L518.24-22.36L518.24-22.36Q518.24-27.88 516.12-30.87L516.12-30.87L516.12-30.87Q514.00-33.86 510.14-33.86L510.14-33.86L510.14-33.86Q506.28-33.86 504.16-30.87L504.16-30.87L504.16-30.87Q502.04-27.88 502.04-22.36ZM579.60-13.34L579.60-13.34L579.60-13.34Q579.60-6.35 574.36-2.39L574.36-2.39L574.36-2.39Q569.11 1.56 558.90 1.56L558.90 1.56L558.90 1.56Q555.04 1.56 551.72 1.01L551.72 1.01L551.72 1.01Q548.41 0.46 546.07-0.69L546.07-0.69L546.07-0.69Q543.72-1.84 542.39-3.59L542.39-3.59L542.39-3.59Q541.05-5.34 541.05-7.73L541.05-7.73L541.05-7.73Q541.05-9.94 541.97-11.45L541.97-11.45L541.97-11.45Q542.89-12.97 544.18-13.98L544.18-13.98L544.18-13.98Q546.85-12.51 550.30-11.36L550.30-11.36L550.30-11.36Q553.75-10.21 558.26-10.21L558.26-10.21L558.26-10.21Q561.11-10.21 562.63-11.04L562.63-11.04L562.63-11.04Q564.14-11.87 564.14-13.25L564.14-13.25L564.14-13.25Q564.14-14.54 563.04-15.27L563.04-15.27L563.04-15.27Q561.94-16.01 559.36-16.47L559.36-16.47L556.60-17.02L556.60-17.02Q548.60-18.58 544.69-21.94L544.69-21.94L544.69-21.94Q540.78-25.30 540.78-31.56L540.78-31.56L540.78-31.56Q540.78-34.96 542.25-37.72L542.25-37.72L542.25-37.72Q543.72-40.48 546.39-42.32L546.39-42.32L546.39-42.32Q549.06-44.16 552.78-45.17L552.78-45.17L552.78-45.17Q556.51-46.18 561.02-46.18L561.02-46.18L561.02-46.18Q564.42-46.18 567.41-45.68L567.41-45.68L567.41-45.68Q570.40-45.17 572.61-44.16L572.61-44.16L572.61-44.16Q574.82-43.15 576.10-41.54L576.10-41.54L576.10-41.54Q577.39-39.93 577.39-37.72L577.39-37.72L577.39-37.72Q577.39-35.60 576.61-34.09L576.61-34.09L576.61-34.09Q575.83-32.57 574.63-31.56L574.63-31.56L574.63-31.56Q573.90-32.02 572.42-32.52L572.42-32.52L572.42-32.52Q570.95-33.03 569.20-33.44L569.20-33.44L569.20-33.44Q567.46-33.86 565.66-34.13L565.66-34.13L565.66-34.13Q563.87-34.41 562.40-34.41L562.40-34.41L562.40-34.41Q559.36-34.41 557.70-33.72L557.70-33.72L557.70-33.72Q556.05-33.03 556.05-31.56L556.05-31.56L556.05-31.56Q556.05-30.54 556.97-29.90L556.97-29.90L556.97-29.90Q557.89-29.26 560.46-28.70L560.46-28.70L563.32-28.06L563.32-28.06Q572.15-26.04 575.87-22.49L575.87-22.49L575.87-22.49Q579.60-18.95 579.60-13.34ZM618.61-54.10L618.61-54.10L618.61-54.10Q620.17-55.02 623.35-55.84L623.35-55.84L623.35-55.84Q626.52-56.67 629.74-56.67L629.74-56.67L629.74-56.67Q634.34-56.67 637.88-55.34L637.88-55.34L637.88-55.34Q641.42-54.00 642.44-51.15L642.44-51.15L642.44-51.15Q644.09-46.37 646.02-40.02L646.02-40.02L646.02-40.02Q647.96-33.67 649.89-26.91L649.89-26.91L649.89-26.91Q651.82-20.15 653.66-13.57L653.66-13.57L653.66-13.57Q655.50-6.99 656.88-1.93L656.88-1.93L656.88-1.93Q655.78-0.64 653.57 0.14L653.57 0.14L653.57 0.14Q651.36 0.92 648.32 0.92L648.32 0.92L648.32 0.92Q646.12 0.92 644.60 0.55L644.60 0.55L644.60 0.55Q643.08 0.18 642.11-0.55L642.11-0.55L642.11-0.55Q641.15-1.29 640.55-2.48L640.55-2.48L640.55-2.48Q639.95-3.68 639.49-5.24L639.49-5.24L637.84-11.59L621.18-11.59L621.18-11.59Q620.45-8.83 619.71-5.89L619.71-5.89L619.71-5.89Q618.98-2.94 618.24-0.18L618.24-0.18L618.24-0.18Q616.95 0.28 615.53 0.60L615.53 0.60L615.53 0.60Q614.10 0.92 612.08 0.92L612.08 0.92L612.08 0.92Q607.38 0.92 605.13-0.69L605.13-0.69L605.13-0.69Q602.88-2.30 602.88-5.15L602.88-5.15L602.88-5.15Q602.88-6.44 603.24-7.73L603.24-7.73L603.24-7.73Q603.61-9.02 604.07-10.76L604.07-10.76L604.07-10.76Q604.72-13.25 605.87-16.93L605.87-16.93L605.87-16.93Q607.02-20.61 608.40-24.89L608.40-24.89L608.40-24.89Q609.78-29.16 611.34-33.67L611.34-33.67L611.34-33.67Q612.90-38.18 614.28-42.18L614.28-42.18L614.28-42.18Q615.66-46.18 616.81-49.31L616.81-49.31L616.81-49.31Q617.96-52.44 618.61-54.10ZM630.20-42.23L629.65-42.23L629.65-42.23Q628.36-38.36 626.75-33.63L626.75-33.63L626.75-33.63Q625.14-28.89 623.85-24.01L623.85-24.01L635.26-24.01L635.26-24.01Q633.97-28.98 632.64-33.72L632.64-33.72L632.64-33.72Q631.30-38.46 630.20-42.23L630.20-42.23ZM683.65 1.47L683.65 1.47L683.65 1.47Q678.78 1.47 674.54 0.05L674.54 0.05L674.54 0.05Q670.31-1.38 667.18-4.32L667.18-4.32L667.18-4.32Q664.06-7.27 662.31-11.68L662.31-11.68L662.31-11.68Q660.56-16.10 660.56-22.08L660.56-22.08L660.56-22.08Q660.56-27.88 662.40-32.34L662.40-32.34L662.40-32.34Q664.24-36.80 667.60-39.88L667.60-39.88L667.60-39.88Q670.96-42.96 675.69-44.53L675.69-44.53L675.69-44.53Q680.43-46.09 686.23-46.09L686.23-46.09L686.23-46.09Q691.38-46.09 695.89-44.71L695.89-44.71L695.89-44.71Q700.40-43.33 702.79-41.68L702.79-41.68L702.79-41.68Q704.63-40.39 705.69-38.73L705.69-38.73L705.69-38.73Q706.74-37.08 706.74-34.59L706.74-34.59L706.74 15.46L706.74 15.46Q705.82 15.73 703.80 16.05L703.80 16.05L703.80 16.05Q701.78 16.38 699.66 16.38L699.66 16.38L699.66 16.38Q697.64 16.38 696.03 16.10L696.03 16.10L696.03 16.10Q694.42 15.82 693.31 15.00L693.31 15.00L693.31 15.00Q692.21 14.17 691.66 12.74L691.66 12.74L691.66 12.74Q691.10 11.32 691.10 9.02L691.10 9.02L691.10 0.28L691.10 0.28Q689.54 0.92 687.61 1.20L687.61 1.20L687.61 1.20Q685.68 1.47 683.65 1.47ZM691.20-12.14L691.20-32.94L691.20-32.94Q690.37-33.30 689.26-33.58L689.26-33.58L689.26-33.58Q688.16-33.86 686.69-33.86L686.69-33.86L686.69-33.86Q681.72-33.86 679.05-30.96L679.05-30.96L679.05-30.96Q676.38-28.06 676.38-22.26L676.38-22.26L676.38-22.26Q676.38-16.19 678.96-13.52L678.96-13.52L678.96-13.52Q681.54-10.86 686.23-10.86L686.23-10.86L686.23-10.86Q689.36-10.86 691.20-12.14L691.20-12.14ZM716.50-17.76L716.50-44.07L716.50-44.07Q717.42-44.34 719.39-44.62L719.39-44.62L719.39-44.62Q721.37-44.90 723.49-44.90L723.49-44.90L723.49-44.90Q725.51-44.90 727.12-44.62L727.12-44.62L727.12-44.62Q728.73-44.34 729.84-43.52L729.84-43.52L729.84-43.52Q730.94-42.69 731.54-41.26L731.54-41.26L731.54-41.26Q732.14-39.84 732.14-37.54L732.14-37.54L732.14-17.76L732.14-17.76Q732.14-13.98 733.98-12.37L733.98-12.37L733.98-12.37Q735.82-10.76 739.31-10.76L739.31-10.76L739.31-10.76Q741.43-10.76 742.76-11.13L742.76-11.13L742.76-11.13Q744.10-11.50 744.83-11.87L744.83-11.87L744.83-44.07L744.83-44.07Q745.75-44.34 747.73-44.62L747.73-44.62L747.73-44.62Q749.71-44.90 751.82-44.90L751.82-44.90L751.82-44.90Q753.85-44.90 755.46-44.62L755.46-44.62L755.46-44.62Q757.07-44.34 758.17-43.52L758.17-43.52L758.17-43.52Q759.28-42.69 759.87-41.26L759.87-41.26L759.87-41.26Q760.47-39.84 760.47-37.54L760.47-37.54L760.47-9.57L760.47-9.57Q760.47-4.97 756.61-2.67L756.61-2.67L756.61-2.67Q753.39-0.64 748.93 0.41L748.93 0.41L748.93 0.41Q744.46 1.47 739.22 1.47L739.22 1.47L739.22 1.47Q734.25 1.47 730.07 0.37L730.07 0.37L730.07 0.37Q725.88-0.74 722.84-3.04L722.84-3.04L722.84-3.04Q719.81-5.34 718.15-8.97L718.15-8.97L718.15-8.97Q716.50-12.60 716.50-17.76L716.50-17.76ZM769.67-57.13L769.67-57.13L769.67-57.13Q769.67-60.63 772.02-63.02L772.02-63.02L772.02-63.02Q774.36-65.41 778.23-65.41L778.23-65.41L778.23-65.41Q782.09-65.41 784.44-63.02L784.44-63.02L784.44-63.02Q786.78-60.63 786.78-57.13L786.78-57.13L786.78-57.13Q786.78-53.64 784.44-51.24L784.44-51.24L784.44-51.24Q782.09-48.85 778.23-48.85L778.23-48.85L778.23-48.85Q774.36-48.85 772.02-51.24L772.02-51.24L772.02-51.24Q769.67-53.64 769.67-57.13ZM786.05-37.54L786.05-0.09L786.05-0.09Q785.04 0.09 783.06 0.41L783.06 0.41L783.06 0.41Q781.08 0.74 779.06 0.74L779.06 0.74L779.06 0.74Q777.03 0.74 775.42 0.46L775.42 0.46L775.42 0.46Q773.81 0.18 772.71-0.64L772.71-0.64L772.71-0.64Q771.60-1.47 771.01-2.90L771.01-2.90L771.01-2.90Q770.41-4.32 770.41-6.62L770.41-6.62L770.41-44.07L770.41-44.07Q771.42-44.25 773.40-44.57L773.40-44.57L773.40-44.57Q775.38-44.90 777.40-44.90L777.40-44.90L777.40-44.90Q779.42-44.90 781.03-44.62L781.03-44.62L781.03-44.62Q782.64-44.34 783.75-43.52L783.75-43.52L783.75-43.52Q784.85-42.69 785.45-41.26L785.45-41.26L785.45-41.26Q786.05-39.84 786.05-37.54L786.05-37.54ZM813.00-53.36L813.00-53.36L813.00-53.36Q813.00-51.24 812.91-47.24L812.91-47.24L812.91-47.24Q812.82-43.24 812.54-38.59L812.54-38.59L812.54-38.59Q812.27-33.95 811.81-29.30L811.81-29.30L811.81-29.30Q811.35-24.66 810.70-21.25L810.70-21.25L810.70-21.25Q810.34-20.98 809.60-20.70L809.60-20.70L809.60-20.70Q808.86-20.42 808.04-20.24L808.04-20.24L808.04-20.24Q807.21-20.06 806.38-19.96L806.38-19.96L806.38-19.96Q805.55-19.87 804.91-19.87L804.91-19.87L804.91-19.87Q802.24-19.87 800.45-20.70L800.45-20.70L800.45-20.70Q798.65-21.53 798.19-23.92L798.19-23.92L798.19-23.92Q797.73-26.04 797.41-30.36L797.41-30.36L797.41-30.36Q797.09-34.68 796.81-39.74L796.81-39.74L796.81-39.74Q796.54-44.80 796.40-49.77L796.40-49.77L796.40-49.77Q796.26-54.74 796.26-58.24L796.26-58.24L796.26-58.24Q798.10-59.25 800.45-59.85L800.45-59.85L800.45-59.85Q802.79-60.44 805.09-60.44L805.09-60.44L805.09-60.44Q808.86-60.44 810.93-58.70L810.93-58.70L810.93-58.70Q813.00-56.95 813.00-53.36ZM796.08-6.99L796.08-6.99L796.08-6.99Q796.08-10.76 798.42-13.20L798.42-13.20L798.42-13.20Q800.77-15.64 804.91-15.64L804.91-15.64L804.91-15.64Q809.05-15.64 811.39-13.20L811.39-13.20L811.39-13.20Q813.74-10.76 813.74-6.99L813.74-6.99L813.74-6.99Q813.74-3.22 811.39-0.78L811.39-0.78L811.39-0.78Q809.05 1.66 804.91 1.66L804.91 1.66L804.91 1.66Q800.77 1.66 798.42-0.78L798.42-0.78L798.42-0.78Q796.08-3.22 796.08-6.99ZM840.42-53.36L840.42-53.36L840.42-53.36Q840.42-51.24 840.33-47.24L840.33-47.24L840.33-47.24Q840.24-43.24 839.96-38.59L839.96-38.59L839.96-38.59Q839.68-33.95 839.22-29.30L839.22-29.30L839.22-29.30Q838.76-24.66 838.12-21.25L838.12-21.25L838.12-21.25Q837.75-20.98 837.02-20.70L837.02-20.70L837.02-20.70Q836.28-20.42 835.45-20.24L835.45-20.24L835.45-20.24Q834.62-20.06 833.80-19.96L833.80-19.96L833.80-19.96Q832.97-19.87 832.32-19.87L832.32-19.87L832.32-19.87Q829.66-19.87 827.86-20.70L827.86-20.70L827.86-20.70Q826.07-21.53 825.61-23.92L825.61-23.92L825.61-23.92Q825.15-26.04 824.83-30.36L824.83-30.36L824.83-30.36Q824.50-34.68 824.23-39.74L824.23-39.74L824.23-39.74Q823.95-44.80 823.81-49.77L823.81-49.77L823.81-49.77Q823.68-54.74 823.68-58.24L823.68-58.24L823.68-58.24Q825.52-59.25 827.86-59.85L827.86-59.85L827.86-59.85Q830.21-60.44 832.51-60.44L832.51-60.44L832.51-60.44Q836.28-60.44 838.35-58.70L838.35-58.70L838.35-58.70Q840.42-56.95 840.42-53.36ZM823.49-6.99L823.49-6.99L823.49-6.99Q823.49-10.76 825.84-13.20L825.84-13.20L825.84-13.20Q828.18-15.64 832.32-15.64L832.32-15.64L832.32-15.64Q836.46-15.64 838.81-13.20L838.81-13.20L838.81-13.20Q841.16-10.76 841.16-6.99L841.16-6.99L841.16-6.99Q841.16-3.22 838.81-0.78L838.81-0.78L838.81-0.78Q836.46 1.66 832.32 1.66L832.32 1.66L832.32 1.66Q828.18 1.66 825.84-0.78L825.84-0.78L825.84-0.78Q823.49-3.22 823.49-6.99ZM867.84-53.36L867.84-53.36L867.84-53.36Q867.84-51.24 867.74-47.24L867.74-47.24L867.74-47.24Q867.65-43.24 867.38-38.59L867.38-38.59L867.38-38.59Q867.10-33.95 866.64-29.30L866.64-29.30L866.64-29.30Q866.18-24.66 865.54-21.25L865.54-21.25L865.54-21.25Q865.17-20.98 864.43-20.70L864.43-20.70L864.43-20.70Q863.70-20.42 862.87-20.24L862.87-20.24L862.87-20.24Q862.04-20.06 861.21-19.96L861.21-19.96L861.21-19.96Q860.38-19.87 859.74-19.87L859.74-19.87L859.74-19.87Q857.07-19.87 855.28-20.70L855.28-20.70L855.28-20.70Q853.48-21.53 853.02-23.92L853.02-23.92L853.02-23.92Q852.56-26.04 852.24-30.36L852.24-30.36L852.24-30.36Q851.92-34.68 851.64-39.74L851.64-39.74L851.64-39.74Q851.37-44.80 851.23-49.77L851.23-49.77L851.23-49.77Q851.09-54.74 851.09-58.24L851.09-58.24L851.09-58.24Q852.93-59.25 855.28-59.85L855.28-59.85L855.28-59.85Q857.62-60.44 859.92-60.44L859.92-60.44L859.92-60.44Q863.70-60.44 865.77-58.70L865.77-58.70L865.77-58.70Q867.84-56.95 867.84-53.36ZM850.91-6.99L850.91-6.99L850.91-6.99Q850.91-10.76 853.25-13.20L853.25-13.20L853.25-13.20Q855.60-15.64 859.74-15.64L859.74-15.64L859.74-15.64Q863.88-15.64 866.23-13.20L866.23-13.20L866.23-13.20Q868.57-10.76 868.57-6.99L868.57-6.99L868.57-6.99Q868.57-3.22 866.23-0.78L866.23-0.78L866.23-0.78Q863.88 1.66 859.74 1.66L859.74 1.66L859.74 1.66Q855.60 1.66 853.25-0.78L853.25-0.78L853.25-0.78Q850.91-3.22 850.91-6.99Z" fill="#ff9719"></path></g></g><style>text {
  font-size: 64px;
  font-family: Arial Black;
  dominant-baseline: central;
  text-anchor: middle;
}</style></svg>