<svg xmlns="http://www.w3.org/2000/svg" viewBox="0 0 500 500"><g id="freepik--Shadow--inject-50"><ellipse id="freepik--path--inject-50" cx="250" cy="416.24" rx="193.89" ry="11.32" style="fill:#f5f5f5"></ellipse></g><g id="freepik--Desk--inject-50"><path d="M387.82,264.22H110.54a3.34,3.34,0,0,1-3.33-3.33h0a3.34,3.34,0,0,1,3.33-3.33H387.82a3.34,3.34,0,0,1,3.33,3.33h0A3.34,3.34,0,0,1,387.82,264.22Z" style="fill:#A28425"></path><path d="M387.82,264.22H322.91a3.34,3.34,0,0,1-3.33-3.33h0a3.34,3.34,0,0,1,3.33-3.33h64.91a3.34,3.34,0,0,1,3.33,3.33h0A3.34,3.34,0,0,1,387.82,264.22Z" style="fill:#263238;opacity:0.30000000000000004"></path><rect x="167.53" y="272.57" width="213.25" height="23.21" style="fill:#263238"></rect><rect x="167.53" y="272.57" width="213.25" height="23.21" style="fill:#fff;opacity:0.1"></rect><polygon points="377.68 411.62 384.06 411.62 383.8 264.22 374.96 264.22 377.68 411.62" style="fill:#263238"></polygon><polygon points="377.68 411.62 384.06 411.62 383.8 264.22 374.96 264.22 377.68 411.62" style="fill:#fff;opacity:0.1"></polygon><polygon points="318.88 411.62 312.49 411.62 326.93 264.22 335.77 264.22 318.88 411.62" style="fill:#263238"></polygon><polygon points="318.88 411.62 312.49 411.62 326.93 264.22 335.77 264.22 318.88 411.62" style="fill:#fff;opacity:0.2"></polygon><polygon points="165.31 411.62 171.69 411.62 171.43 264.22 162.59 264.22 165.31 411.62" style="fill:#263238"></polygon><polygon points="165.31 411.62 171.69 411.62 171.43 264.22 162.59 264.22 165.31 411.62" style="fill:#fff;opacity:0.1"></polygon><polygon points="106.51 411.62 100.12 411.62 114.56 264.22 123.4 264.22 106.51 411.62" style="fill:#263238"></polygon><polygon points="106.51 411.62 100.12 411.62 114.56 264.22 123.4 264.22 106.51 411.62" style="fill:#fff;opacity:0.2"></polygon><polygon points="286.11 257.56 271.39 257.56 265.5 228.78 280.22 228.78 286.11 257.56" style="fill:#263238"></polygon><path d="M305.64,251.63H241.78a3.59,3.59,0,0,1-3.62-3.85l2.44-40.43a4.15,4.15,0,0,1,4.08-3.85h63.87a3.6,3.6,0,0,1,3.62,3.85l-2.44,40.43A4.16,4.16,0,0,1,305.64,251.63Z" style="fill:#263238"></path><path d="M304.64,251.63H240.78a3.59,3.59,0,0,1-3.62-3.85l2.44-40.43a4.15,4.15,0,0,1,4.08-3.85h63.87a3.6,3.6,0,0,1,3.62,3.85l-2.44,40.43A4.16,4.16,0,0,1,304.64,251.63Z" style="fill:#A28425"></path><path d="M240.77,249.63a1.64,1.64,0,0,1-1.19-.5,1.67,1.67,0,0,1-.43-1.23l2.44-40.43a2.15,2.15,0,0,1,2.09-2h63.87a1.6,1.6,0,0,1,1.62,1.73l-2.44,40.43a2.14,2.14,0,0,1-2.09,2Z" style="fill:#fff"></path><polygon points="268.82 203.5 272.97 217.71 285.29 203.5 268.82 203.5" style="opacity:0.2"></polygon></g><g id="freepik--Character--inject-50"><path d="M169.55,169c.1.77.58,1.35,1.09,1.31s.83-.7.73-1.47-.58-1.35-1.08-1.31S169.46,168.25,169.55,169Z" style="fill:#263238"></path><path d="M170.39,170.15a24.53,24.53,0,0,0,3.46,5.55c-1.1,1.11-3.11.66-3.11.66Z" style="fill:#a02724"></path><path d="M167,166.07a.63.63,0,0,1-.23,0,.47.47,0,0,1-.25-.6,4.41,4.41,0,0,1,3.1-2.69.45.45,0,0,1,.52.37.46.46,0,0,1-.37.53,3.41,3.41,0,0,0-2.4,2.14A.48.48,0,0,1,167,166.07Z" style="fill:#263238"></path><path d="M146.89,181.07l6,4.6,8.19,6.27a8.48,8.48,0,0,0-.8,3c-.29,2.3-.58,4,4.53,5.41a2.91,2.91,0,0,1,2.18,2.27c.2,1.36-.63,3-5.35,3.81a21.69,21.69,0,0,1-13.33-2.27c-2-1-2-2.2-1.16-4.23C149.67,194.16,148.45,186.8,146.89,181.07Z" style="fill:#b55b52"></path><path d="M140,201.75a41.67,41.67,0,0,0,2.84-6.92s15.2-.83,20.22.67,8.14,8,8.14,8Z" style="fill:#A28425"></path><path d="M146.36,213.06c-.37,1.12-.78,2.49-1.17,3.75l-1.13,3.9c-.7,2.6-1.38,5.21-1.91,7.81a74.52,74.52,0,0,0-1.29,7.7,36.54,36.54,0,0,0-.22,7.17,16.17,16.17,0,0,0,.46,3c.06.2.11.42.18.61l.2.54v0s0,0,0,0a2.54,2.54,0,0,0-.16-.28,4.79,4.79,0,0,0-.33-.42,2.39,2.39,0,0,0-.44-.41c-.2-.14-.23-.12-.19-.07a4.91,4.91,0,0,0,.94.53c.45.2,1,.4,1.55.59,1.13.38,2.38.73,3.67,1.07,5.16,1.3,10.79,2.31,16.28,3.48l-.18,6.93a88.26,88.26,0,0,1-8.84.73,85,85,0,0,1-9-.15,43.22,43.22,0,0,1-4.73-.58c-.82-.15-1.67-.32-2.57-.57a15.74,15.74,0,0,1-3-1.11,10.76,10.76,0,0,1-2-1.25,9.1,9.1,0,0,1-1.21-1.16,9.39,9.39,0,0,1-.64-.85c-.1-.17-.21-.34-.3-.51l-.13-.24-.69-1.41c-.21-.47-.38-.93-.56-1.4a28.11,28.11,0,0,1-1.36-5.4c-1-6.95-.21-13.15.83-19.18.56-3,1.22-6,2-8.85.4-1.45.82-2.9,1.27-4.33s.93-2.81,1.51-4.38Z" style="fill:#b55b52"></path><path d="M137.11,200.51c9.45-2.5,15.06,5.24,11.86,18s-4.27,13.24-4.27,13.24l-19.49-3.25C127.61,216,127.42,203.06,137.11,200.51Z" style="fill:#A28425"></path><path d="M167.64,249.26l-1.47-.13c-4.18,0-4.9,1.14-7.47,3.53l-1,5.26c6.75,3.45,10.37-.34,10.38-.34h6.25l-2.2-5A5.5,5.5,0,0,0,167.64,249.26Z" style="fill:#b55b52"></path><path d="M144.31,171.12c1.7,9.11,2.23,14.53,7.45,18.6,7.84,6.11,18.64.3,19.7-9.18.95-8.53-2-22-11.42-24.39A12.88,12.88,0,0,0,144.31,171.12Z" style="fill:#b55b52"></path><path d="M162.36,174.3c6.5-.52,4.6-7.37,2.59-8.8,3.05-1.16,5.15-6,2.22-9.32,1.72-4.49-3.2-9.9-11.83-9.09-6.3.58-7,3.91-7,3.91s-7.55-.79-10.69,5.44c-2.68,5.34.57,8.19.57,8.19s-5.64,1.64-4.08,9c1.66,7.94,7.76,6.1,7.76,6.1s-1.37,7.28,6.88,7.38c7.13.09,7.22-5.25,7.22-5.25S165.24,181,162.36,174.3Z" style="fill:#263238"></path><path d="M157.52,174.83a8.47,8.47,0,0,0,4,4.54c2.38,1.22,4.2-1.31,3.78-3.91-.38-2.33-2.41-5.32-4.92-5.46S156.63,172.41,157.52,174.83Z" style="fill:#b55b52"></path><polygon points="254.47 400.17 263.36 396.56 257.08 375.21 248.19 378.81 254.47 400.17" style="fill:#b55b52"></polygon><polygon points="251.24 389.17 260.22 385.87 257.08 375.21 248.19 378.81 251.24 389.17" style="opacity:0.2"></polygon><path d="M262.59,393l-10.17,3.53a.68.68,0,0,0-.45.85l2.3,8.22a1.71,1.71,0,0,0,2.15,1.06c3.51-1.3,4.93-2,9.27-3.88a137,137,0,0,0,12.52-6c3.39-2,1.35-5.41-.3-4.85-3.91,1.32-10.32,2.18-13.57,1.06A2.69,2.69,0,0,0,262.59,393Z" style="fill:#263238"></path><path d="M183.07,277S250.26,283,252,302.33c3.5,39.33,8.87,77.25,8.87,77.25l-13.67,5s-16.73-43.2-16.51-74c-19.38-5.47-70.34,2.56-78.67-12.39-7.36-13.2-.9-22.68-.9-22.68Z" style="fill:#263238"></path><polygon points="246.18 387.69 263.2 381.94 262.46 374.19 243.27 380.37 246.18 387.69" style="fill:#A28425"></polygon><path d="M266.34,393.41a11.61,11.61,0,0,1-2.52.51.22.22,0,0,1-.22-.11.23.23,0,0,1,0-.24c.22-.3,2.18-2.94,3.43-2.9a.87.87,0,0,1,.7.43,1.23,1.23,0,0,1,.13,1.24A2.6,2.6,0,0,1,266.34,393.41Zm-2,0c1.73-.24,2.91-.7,3.18-1.27a.78.78,0,0,0-.11-.8.39.39,0,0,0-.34-.22C266.35,391.09,265.11,392.38,264.29,393.41Z" style="fill:#A28425"></path><path d="M263.87,393.91a.2.2,0,0,1-.11,0,.23.23,0,0,1-.17-.13c0-.11-1.15-2.64-.55-3.84a1.13,1.13,0,0,1,.79-.6.85.85,0,0,1,1,.37c.55.92-.14,3.27-.85,4.12A.23.23,0,0,1,263.87,393.91Zm0-4.1a.67.67,0,0,0-.39.35c-.36.71.08,2.23.41,3.08.55-.94.95-2.69.59-3.29-.07-.11-.19-.24-.51-.17Z" style="fill:#A28425"></path><polygon points="206.9 406.52 216.4 406.07 217.95 383.64 208.45 384.09 206.9 406.52" style="fill:#b55b52"></polygon><path d="M216.62,404.45l-10.76-.34a.68.68,0,0,0-.73.63l-.79,8.49A1.71,1.71,0,0,0,206,415c3.75.05,5.54-.11,10.27,0,2.91.09,8.64.52,12.63,0s3.38-4.43,1.64-4.58c-4.11-.33-9.62-3.17-12.25-5.38A2.65,2.65,0,0,0,216.62,404.45Z" style="fill:#263238"></path><path d="M220,406.22a12.12,12.12,0,0,1-2.54-.42.22.22,0,0,1-.07-.4c.31-.21,3.08-2,4.24-1.48a.85.85,0,0,1,.5.65,1.23,1.23,0,0,1-.32,1.2A2.52,2.52,0,0,1,220,406.22Zm-1.92-.73c1.7.4,3,.39,3.43,0a.81.81,0,0,0,.18-.8.41.41,0,0,0-.24-.32C220.79,404.07,219.17,404.82,218,405.49Z" style="fill:#A28425"></path><path d="M217.47,405.81a.23.23,0,0,1-.11,0,.24.24,0,0,1-.11-.19c0-.11-.13-2.87.86-3.77a1.08,1.08,0,0,1,1-.28.85.85,0,0,1,.79.7c.18,1.05-1.31,3-2.28,3.54A.2.2,0,0,1,217.47,405.81ZM218.9,402a.64.64,0,0,0-.49.18c-.59.53-.72,2.11-.72,3,.85-.68,1.85-2.17,1.73-2.86,0-.13-.1-.28-.42-.33Z" style="fill:#A28425"></path><polygon points="208.45 384.09 217.96 383.64 217.06 396.47 207.59 396.46 208.45 384.09" style="opacity:0.2"></polygon><path d="M160.75,275.93S233.15,287,232,303.67c-2.07,30-12.13,88.63-12.13,88.63l-14.26.2s-3.37-60.14,2-82.06c-17.81,0-68.05-.62-74.9-9.77-7.58-10.11.21-26,.21-26Z" style="fill:#263238"></path><polygon points="203.93 393.62 221.19 393.35 222.04 384.23 203.1 384.97 203.93 393.62" style="fill:#A28425"></polygon><path d="M173.5,199.5c-5.83-1.14-32.12-.81-32.12-.81A10.5,10.5,0,0,0,130.66,208c-.92,8.11,4.23,26.23,4.41,35.47.22,11.35-1.95,15.95-2.17,31.23L183.07,277c0-30.73-1.34-56.17-2.55-68.37C180.09,204.34,179.33,200.63,173.5,199.5Z" style="fill:#A28425"></path><path d="M173.5,199.5c-5.83-1.14-32.12-.81-32.12-.81A10.5,10.5,0,0,0,130.66,208c-.92,8.11,4.23,26.23,4.41,35.47.22,11.35-1.95,15.95-2.17,31.23L183.07,277c0-30.73-1.34-56.17-2.55-68.37C180.09,204.34,179.33,200.63,173.5,199.5Z" style="fill:#fff;opacity:0.30000000000000004"></path><path d="M180.37,209.18c1.57,5.4,3.15,10.95,4.78,16.37s3.3,10.87,5.18,16c.46,1.31,1,2.53,1.44,3.79l.77,1.77.1.22,0,.11,0,.06v0l0-.07a3.78,3.78,0,0,0-.64-.84c-.34-.33-.47-.36-.5-.36a2.49,2.49,0,0,0,.76.47,12.43,12.43,0,0,0,1.51.61c1.13.39,2.4.74,3.69,1.09,5.23,1.33,10.94,2.35,16.5,3.54l-.18,6.93a85,85,0,0,1-9,.73,80.17,80.17,0,0,1-9.14-.17,43,43,0,0,1-4.82-.62c-.84-.16-1.71-.36-2.65-.63a14.7,14.7,0,0,1-3.2-1.32,10.37,10.37,0,0,1-2.2-1.69,8.25,8.25,0,0,1-1.28-1.72l-.34-.63-1.13-2.14c-.66-1.4-1.38-2.81-2-4.2-1.23-2.81-2.31-5.59-3.39-8.38s-2-5.58-2.93-8.38c-1.85-5.63-3.52-11.2-5-17Z" style="fill:#b55b52"></path><path d="M166.12,203.61c6.86-7,15.63-3.18,19.4,9.46s3.09,13.56,3.09,13.56l-18.43,7.15C165.83,221.74,159.1,210.74,166.12,203.61Z" style="fill:#A28425"></path><path d="M218.86,249.26l-1.47-.13c-4.18,0-4.89,1.14-7.46,3.53l-1,5.26c6.75,3.45,10.37-.34,10.37-.34h6.26l-2.21-5A5.48,5.48,0,0,0,218.86,249.26Z" style="fill:#b55b52"></path><rect x="132.55" y="304.87" width="69.18" height="9.22" rx="2.55" transform="translate(334.28 618.97) rotate(180)" style="fill:#A28425"></rect><polygon points="135.39 416.75 132.55 416.75 135.82 314.09 139.75 314.09 135.39 416.75" style="fill:#A28425"></polygon><polygon points="135.39 416.75 132.55 416.75 135.82 314.09 139.75 314.09 135.39 416.75" style="fill:#fff;opacity:0.4"></polygon><polygon points="161.51 416.75 164.35 416.75 161.09 314.09 157.16 314.09 161.51 416.75" style="fill:#A28425"></polygon><polygon points="161.51 416.75 164.35 416.75 161.09 314.09 157.16 314.09 161.51 416.75" style="fill:#fff;opacity:0.4"></polygon><polygon points="172.77 416.75 169.93 416.75 173.2 314.09 177.13 314.09 172.77 416.75" style="fill:#A28425"></polygon><polygon points="172.77 416.75 169.93 416.75 173.2 314.09 177.13 314.09 172.77 416.75" style="fill:#fff;opacity:0.4"></polygon><polygon points="198.89 416.75 201.73 416.75 198.47 314.09 194.54 314.09 198.89 416.75" style="fill:#A28425"></polygon><polygon points="198.89 416.75 201.73 416.75 198.47 314.09 194.54 314.09 198.89 416.75" style="fill:#fff;opacity:0.4"></polygon><g style="opacity:0.30000000000000004"><polygon points="135.82 314.09 139.75 314.09 139.56 318.45 135.68 318.45 135.82 314.09" style="fill:#A28425"></polygon><polygon points="161.22 318.45 157.34 318.45 157.16 314.09 161.08 314.09 161.22 318.45" style="fill:#A28425"></polygon><polygon points="177.12 314.09 176.94 318.45 173.06 318.45 173.2 314.09 177.12 314.09" style="fill:#A28425"></polygon><polygon points="198.61 318.45 194.72 318.45 194.54 314.09 198.47 314.09 198.61 318.45" style="fill:#A28425"></polygon></g></g></svg>